<mxfile host="app.diagrams.net" modified="2022-10-27T15:13:30.998Z" agent="5.0 (Windows NT 10.0; Win64; x64) AppleWebKit/537.36 (KHTML, like Gecko) Chrome/106.0.0.0 Safari/537.36" etag="jO9s-tgCCSmCc0IZ9qls" version="20.5.1" type="github">
  <diagram id="20TWYv1eWM6y4hpCPu6C" name="Página-1">
    <mxGraphModel dx="1422" dy="762" grid="1" gridSize="10" guides="1" tooltips="1" connect="1" arrows="1" fold="1" page="1" pageScale="1" pageWidth="827" pageHeight="1169" math="0" shadow="0">
      <root>
        <mxCell id="0" />
        <mxCell id="1" parent="0" />
        <mxCell id="9OzoLap-KiGsSvFS4rxD-4" style="edgeStyle=orthogonalEdgeStyle;rounded=0;orthogonalLoop=1;jettySize=auto;html=1;" edge="1" parent="1" source="9OzoLap-KiGsSvFS4rxD-1" target="9OzoLap-KiGsSvFS4rxD-2">
          <mxGeometry relative="1" as="geometry" />
        </mxCell>
        <mxCell id="9OzoLap-KiGsSvFS4rxD-1" value="Esse é o meu segundo diagrama" style="rounded=0;whiteSpace=wrap;html=1;fillColor=#d5e8d4;strokeColor=#82b366;" vertex="1" parent="1">
          <mxGeometry x="354" y="220" width="120" height="60" as="geometry" />
        </mxCell>
        <mxCell id="9OzoLap-KiGsSvFS4rxD-2" value="No Github" style="rounded=0;whiteSpace=wrap;html=1;fillColor=#dae8fc;strokeColor=#6c8ebf;" vertex="1" parent="1">
          <mxGeometry x="460" y="370" width="120" height="60" as="geometry" />
        </mxCell>
      </root>
    </mxGraphModel>
  </diagram>
</mxfile>
